<mxfile host="app.diagrams.net" agent="Mozilla/5.0 (Windows NT 10.0; Win64; x64) AppleWebKit/537.36 (KHTML, like Gecko) Chrome/109.0.0.0 Safari/537.36" version="26.2.14">
  <diagram name="Page-1" id="ygQgBj_d-p6f_NzuTIp4">
    <mxGraphModel dx="1106" dy="1721" grid="1" gridSize="10" guides="1" tooltips="1" connect="1" arrows="1" fold="1" page="1" pageScale="1" pageWidth="850" pageHeight="1100" math="0" shadow="0">
      <root>
        <mxCell id="0" />
        <mxCell id="1" parent="0" />
        <mxCell id="DvkbUuj7Ib0A3q24Bpke-35" value="payment" style="ellipse;whiteSpace=wrap;html=1;" vertex="1" parent="1">
          <mxGeometry x="330" y="250" width="160" height="80" as="geometry" />
        </mxCell>
        <mxCell id="DvkbUuj7Ib0A3q24Bpke-36" style="edgeStyle=orthogonalEdgeStyle;rounded=0;orthogonalLoop=1;jettySize=auto;html=1;entryX=0.5;entryY=0;entryDx=0;entryDy=0;" edge="1" parent="1" source="DvkbUuj7Ib0A3q24Bpke-38" target="DvkbUuj7Ib0A3q24Bpke-39">
          <mxGeometry relative="1" as="geometry" />
        </mxCell>
        <mxCell id="DvkbUuj7Ib0A3q24Bpke-37" value="" style="edgeStyle=orthogonalEdgeStyle;rounded=0;orthogonalLoop=1;jettySize=auto;html=1;" edge="1" parent="1" source="DvkbUuj7Ib0A3q24Bpke-38" target="DvkbUuj7Ib0A3q24Bpke-35">
          <mxGeometry relative="1" as="geometry" />
        </mxCell>
        <mxCell id="DvkbUuj7Ib0A3q24Bpke-38" value="feedback" style="ellipse;whiteSpace=wrap;html=1;" vertex="1" parent="1">
          <mxGeometry x="330" y="370" width="160" height="80" as="geometry" />
        </mxCell>
        <mxCell id="DvkbUuj7Ib0A3q24Bpke-39" value="sequrity" style="ellipse;whiteSpace=wrap;html=1;" vertex="1" parent="1">
          <mxGeometry x="330" y="490" width="160" height="90" as="geometry" />
        </mxCell>
        <mxCell id="DvkbUuj7Ib0A3q24Bpke-40" value="" style="endArrow=classic;html=1;rounded=0;" edge="1" parent="1">
          <mxGeometry width="50" height="50" relative="1" as="geometry">
            <mxPoint x="410" y="250" as="sourcePoint" />
            <mxPoint x="410" y="250" as="targetPoint" />
            <Array as="points">
              <mxPoint x="410" y="220" />
            </Array>
          </mxGeometry>
        </mxCell>
        <mxCell id="DvkbUuj7Ib0A3q24Bpke-41" value="" style="endArrow=classic;html=1;rounded=0;exitX=0.5;exitY=1;exitDx=0;exitDy=0;entryX=0.5;entryY=0;entryDx=0;entryDy=0;" edge="1" parent="1" source="DvkbUuj7Ib0A3q24Bpke-35" target="DvkbUuj7Ib0A3q24Bpke-38">
          <mxGeometry width="50" height="50" relative="1" as="geometry">
            <mxPoint x="410" y="360" as="sourcePoint" />
            <mxPoint x="410" y="350" as="targetPoint" />
          </mxGeometry>
        </mxCell>
        <mxCell id="DvkbUuj7Ib0A3q24Bpke-42" value="Actor" style="shape=umlActor;verticalLabelPosition=bottom;verticalAlign=top;html=1;outlineConnect=0;" vertex="1" parent="1">
          <mxGeometry x="90" y="210" width="40" height="80" as="geometry" />
        </mxCell>
        <mxCell id="DvkbUuj7Ib0A3q24Bpke-43" value="" style="endArrow=classic;html=1;rounded=0;entryX=0;entryY=0.625;entryDx=0;entryDy=0;entryPerimeter=0;exitX=0.5;exitY=0.5;exitDx=0;exitDy=0;exitPerimeter=0;" edge="1" parent="1" source="DvkbUuj7Ib0A3q24Bpke-42" target="DvkbUuj7Ib0A3q24Bpke-50">
          <mxGeometry width="50" height="50" relative="1" as="geometry">
            <mxPoint x="140" y="300" as="sourcePoint" />
            <mxPoint x="460" y="310" as="targetPoint" />
            <Array as="points">
              <mxPoint x="130" y="250" />
            </Array>
          </mxGeometry>
        </mxCell>
        <mxCell id="DvkbUuj7Ib0A3q24Bpke-44" value="" style="endArrow=classic;html=1;rounded=0;" edge="1" parent="1">
          <mxGeometry width="50" height="50" relative="1" as="geometry">
            <mxPoint x="120" y="250" as="sourcePoint" />
            <mxPoint x="330" y="300" as="targetPoint" />
          </mxGeometry>
        </mxCell>
        <mxCell id="DvkbUuj7Ib0A3q24Bpke-45" value="" style="endArrow=classic;html=1;rounded=0;" edge="1" parent="1" target="DvkbUuj7Ib0A3q24Bpke-38">
          <mxGeometry width="50" height="50" relative="1" as="geometry">
            <mxPoint x="130" y="250" as="sourcePoint" />
            <mxPoint x="460" y="310" as="targetPoint" />
          </mxGeometry>
        </mxCell>
        <mxCell id="DvkbUuj7Ib0A3q24Bpke-46" value="" style="endArrow=classic;html=1;rounded=0;entryX=0;entryY=0;entryDx=0;entryDy=0;" edge="1" parent="1" target="DvkbUuj7Ib0A3q24Bpke-39">
          <mxGeometry width="50" height="50" relative="1" as="geometry">
            <mxPoint x="130" y="250" as="sourcePoint" />
            <mxPoint x="460" y="310" as="targetPoint" />
          </mxGeometry>
        </mxCell>
        <mxCell id="DvkbUuj7Ib0A3q24Bpke-47" value="" style="endArrow=classic;html=1;rounded=0;entryX=0.006;entryY=0.688;entryDx=0;entryDy=0;entryPerimeter=0;" edge="1" parent="1" target="DvkbUuj7Ib0A3q24Bpke-49">
          <mxGeometry width="50" height="50" relative="1" as="geometry">
            <mxPoint x="120" y="250" as="sourcePoint" />
            <mxPoint x="460" y="310" as="targetPoint" />
            <Array as="points" />
          </mxGeometry>
        </mxCell>
        <mxCell id="DvkbUuj7Ib0A3q24Bpke-48" value="" style="swimlane;startSize=0;" vertex="1" parent="1">
          <mxGeometry x="260" y="20" width="300" height="630" as="geometry" />
        </mxCell>
        <mxCell id="DvkbUuj7Ib0A3q24Bpke-49" value="login page" style="ellipse;whiteSpace=wrap;html=1;" vertex="1" parent="DvkbUuj7Ib0A3q24Bpke-48">
          <mxGeometry x="70" y="30" width="160" height="80" as="geometry" />
        </mxCell>
        <mxCell id="DvkbUuj7Ib0A3q24Bpke-50" value="type of ticekt" style="ellipse;whiteSpace=wrap;html=1;" vertex="1" parent="DvkbUuj7Ib0A3q24Bpke-48">
          <mxGeometry x="70" y="140" width="160" height="80" as="geometry" />
        </mxCell>
        <mxCell id="DvkbUuj7Ib0A3q24Bpke-51" value="" style="endArrow=classic;html=1;rounded=0;" edge="1" parent="DvkbUuj7Ib0A3q24Bpke-48" source="DvkbUuj7Ib0A3q24Bpke-49" target="DvkbUuj7Ib0A3q24Bpke-50">
          <mxGeometry width="50" height="50" relative="1" as="geometry">
            <mxPoint x="150" y="350" as="sourcePoint" />
            <mxPoint x="200" y="300" as="targetPoint" />
          </mxGeometry>
        </mxCell>
        <mxCell id="DvkbUuj7Ib0A3q24Bpke-52" value="" style="endArrow=classic;html=1;rounded=0;" edge="1" parent="1">
          <mxGeometry width="50" height="50" relative="1" as="geometry">
            <mxPoint x="490" y="290" as="sourcePoint" />
            <mxPoint x="650" y="290" as="targetPoint" />
          </mxGeometry>
        </mxCell>
        <mxCell id="DvkbUuj7Ib0A3q24Bpke-53" value="CASH&lt;div&gt;UPI&lt;/div&gt;&lt;div&gt;NET BANKING&lt;/div&gt;" style="text;html=1;align=center;verticalAlign=middle;resizable=0;points=[];autosize=1;strokeColor=none;fillColor=none;" vertex="1" parent="1">
          <mxGeometry x="610" y="263" width="100" height="60" as="geometry" />
        </mxCell>
        <mxCell id="DvkbUuj7Ib0A3q24Bpke-54" value="UML DAIGRAM" style="text;html=1;align=center;verticalAlign=middle;resizable=0;points=[];autosize=1;strokeColor=none;fillColor=none;rotation=0;" vertex="1" parent="1">
          <mxGeometry x="355" y="-80" width="110" height="30" as="geometry" />
        </mxCell>
      </root>
    </mxGraphModel>
  </diagram>
</mxfile>
